<svg width="18" height="18" viewBox="0 0 18 18" fill="none" xmlns="http://www.w3.org/2000/svg">
<path fill-rule="evenodd" clip-rule="evenodd" d="M15 0.75C16.2426 0.75 17.25 1.75736 17.25 3C17.25 4.24264 16.2426 5.25 15 5.25C14.6528 5.25 14.3254 5.16851 14.0317 5.02808L11.0281 8.03174C11.1685 8.32535 11.25 8.65281 11.25 9C11.25 9.34695 11.1683 9.67406 11.0281 9.96753L14.0317 12.9712C14.3253 12.8308 14.6529 12.75 15 12.75C16.2426 12.75 17.25 13.7574 17.25 15C17.25 16.2426 16.2426 17.25 15 17.25C13.7574 17.25 12.75 16.2426 12.75 15C12.75 14.6529 12.8308 14.3253 12.9712 14.0317L9.96753 11.0281C9.67406 11.1683 9.34695 11.25 9 11.25C8.65281 11.25 8.32535 11.1685 8.03174 11.0281L5.02808 14.0317C5.16851 14.3254 5.25 14.6528 5.25 15C5.25 16.2426 4.24264 17.25 3 17.25C1.75736 17.25 0.75 16.2426 0.75 15C0.75 13.7574 1.75736 12.75 3 12.75C3.34684 12.75 3.67414 12.831 3.96753 12.9712L6.97119 9.96753C6.83102 9.67414 6.75 9.34684 6.75 9C6.75 7.75736 7.75736 6.75 9 6.75C9.34684 6.75 9.67414 6.83102 9.96753 6.97119L12.9712 3.96753C12.831 3.67414 12.75 3.34684 12.75 3C12.75 1.75736 13.7574 0.75 15 0.75ZM3.12378 15.7383C3.04149 15.752 2.95777 15.7521 2.87549 15.7383C2.91606 15.7451 2.9575 15.75 3 15.75C3.04225 15.75 3.08343 15.745 3.12378 15.7383ZM14.9846 15.7493C14.9897 15.7494 14.9949 15.75 15 15.75C15.0051 15.75 15.0103 15.7494 15.0154 15.7493C15.0051 15.7495 14.9949 15.7495 14.9846 15.7493ZM15.3472 15.6643C15.2949 15.6916 15.24 15.7117 15.1838 15.7258C15.2412 15.7114 15.2959 15.6911 15.3472 15.6643ZM14.6528 15.6643C14.7012 15.6896 14.7528 15.7093 14.8066 15.7236C14.7538 15.7096 14.7022 15.6901 14.6528 15.6643ZM2.53418 15.5867C2.53185 15.5848 2.52916 15.5834 2.52686 15.5815L2.52319 15.5786C2.52669 15.5815 2.53063 15.5838 2.53418 15.5867ZM15.6313 15.4028C15.6152 15.4281 15.5981 15.4532 15.5786 15.4768L15.6218 15.4197C15.6254 15.4143 15.6279 15.4083 15.6313 15.4028ZM15.7258 15.1838C15.713 15.2347 15.6945 15.284 15.6709 15.3318C15.6941 15.2849 15.7127 15.2356 15.7258 15.1838ZM2.25366 15.0769C2.25527 15.0927 2.25841 15.1083 2.26099 15.1238C2.2581 15.1065 2.25533 15.0892 2.25366 15.0718V15.0769ZM15.7485 15.0264C15.7488 15.0176 15.75 15.0088 15.75 15C15.75 14.9936 15.7487 14.9873 15.7485 14.981C15.7489 14.9961 15.7491 15.0112 15.7485 15.0264ZM2.32471 14.6748C2.27721 14.7733 2.25 14.8834 2.25 15L2.25366 14.9282C2.262 14.841 2.28593 14.7553 2.32471 14.6748ZM15.5859 14.5327C15.652 14.6154 15.6976 14.709 15.7236 14.8066C15.6966 14.7053 15.6496 14.6124 15.5859 14.5327ZM2.4126 14.5342C2.41454 14.5317 2.41648 14.5293 2.41846 14.5269L2.42139 14.5232C2.4184 14.5268 2.41552 14.5305 2.4126 14.5342ZM15.7236 3.19263C15.699 3.28524 15.6568 3.37387 15.5962 3.45337C15.6546 3.37662 15.6982 3.28854 15.7236 3.19263ZM15.6877 2.70117C15.7039 2.7383 15.716 2.77664 15.7258 2.81543C15.7104 2.75456 15.6885 2.69649 15.6592 2.64258L15.6877 2.70117ZM14.5254 2.41919L14.5269 2.41846C14.5544 2.39599 14.5835 2.37637 14.6133 2.3584C14.5827 2.37689 14.5529 2.39665 14.5254 2.41919ZM14.8066 2.27563C14.7548 2.28943 14.7054 2.3088 14.6587 2.33276C14.7063 2.30838 14.7558 2.28917 14.8066 2.27563ZM15.1838 2.27344C15.2346 2.28623 15.2841 2.30478 15.3318 2.32837C15.2849 2.30518 15.2356 2.28649 15.1838 2.27344ZM14.9846 2.25073C14.9949 2.25052 15.0051 2.25053 15.0154 2.25073C15.0103 2.25063 15.0051 2.25 15 2.25C14.9949 2.25 14.9897 2.25063 14.9846 2.25073ZM3.47314 15.5815C3.47069 15.5835 3.46756 15.5847 3.46509 15.5867C3.46823 15.5842 3.47151 15.5819 3.47461 15.5793L3.47314 15.5815ZM15.7485 3.01831C15.7487 3.01221 15.75 3.00613 15.75 3C15.75 2.98968 15.7489 2.97945 15.7485 2.96924C15.7492 2.9856 15.7489 3.00194 15.7485 3.01831Z" fill="black"/>
</svg>
